<?xml version="1.0" ?><!DOCTYPE svg  PUBLIC '-//W3C//DTD SVG 1.1//EN'  'http://www.w3.org/Graphics/SVG/1.1/DTD/svg11.dtd'><svg enable-background="new 797.5 531.5 512 512" height="512px" id="Layer_1" version="1.1" viewBox="797.5 531.5 512 512" width="512px" xml:space="preserve" xmlns="http://www.w3.org/2000/svg" xmlns:xlink="http://www.w3.org/1999/xlink"><g><g><circle cx="1053.5" cy="781.013" fill="#BAF7D7" r="176.363"/></g><g><circle cx="1189.695" cy="951.431" fill="#BAF7D7" r="23.022"/></g><g><circle cx="1216.732" cy="909.529" fill="#BAF7D7" r="11.511"/></g><g><circle cx="917.306" cy="951.431" fill="#BAF7D7" r="23.022"/></g><g><circle cx="890.269" cy="909.529" fill="#BAF7D7" r="11.511"/></g></g><g><g><path d="M1160.58,832.353c-11.037,0.246-22.563-3.288-34.371-10.553c-3.816-2.35-5.008-7.35-2.658-11.168    s7.35-5.01,11.168-2.66c27.16,16.712,43.088,4.121,50.166-4.871c11.184-14.208,11.969-33.064,5.182-39.807    c-5.049-5.014-10.242-7.311-15.76-7.051c-12.383,0.6-23.125,13.402-23.232,13.531c-2.855,3.443-7.967,3.941-11.418,1.1    c-3.453-2.844-3.965-7.936-1.133-11.397c0.615-0.753,15.291-18.433,34.889-19.444c10.256-0.543,19.719,3.42,28.096,11.743    c13.52,13.429,11.748,41.53-3.865,61.367c-7.836,9.954-18.051,16.331-29.543,18.443    C1165.619,832.043,1163.112,832.298,1160.58,832.353z" fill="#FFFFFF"/></g><g><path d="M1159.501,837.365c-11.635,0-23.717-3.804-35.912-11.306c-6.159-3.793-8.087-11.888-4.297-18.047    c2.406-3.91,6.586-6.245,11.181-6.245c2.423,0,4.797,0.673,6.866,1.946c8.034,4.944,15.521,7.45,22.254,7.45    c10.399,0,17.357-6.066,21.363-11.155c9.921-12.604,10.224-28.561,5.587-33.167c-4.003-3.976-7.917-5.783-12.001-5.604    c-8.343,0.404-17.002,8.616-19.634,11.746c-2.49,3.003-6.18,4.735-10.106,4.735c-3.03,0-5.986-1.06-8.324-2.985    c-5.566-4.584-6.385-12.849-1.824-18.423c0.67-0.819,16.702-20.146,38.501-21.271c0.7-0.037,1.404-0.056,2.104-0.056    c10.91,0,20.928,4.456,29.773,13.245c15.23,15.129,13.646,46.271-3.461,68.007c-8.6,10.924-19.861,17.933-32.567,20.269    c-2.727,0.501-5.523,0.786-8.313,0.848C1160.295,837.361,1159.898,837.365,1159.501,837.365z M1130.473,811.767    c-1.096,0-2.091,0.556-2.663,1.485c-0.901,1.464-0.443,3.389,1.021,4.29c10.945,6.732,21.552,10.063,31.639,9.812    c2.261-0.05,4.523-0.28,6.727-0.686c10.277-1.889,19.447-7.635,26.519-16.618c13.876-17.63,15.872-43.203,4.271-54.727    c-7.349-7.302-15.523-10.772-24.308-10.298c-17.431,0.899-31.145,17.448-31.281,17.615c-1.082,1.322-0.885,3.283,0.439,4.374    c0.707,0.582,1.46,0.704,1.967,0.704c0.941,0,1.825-0.414,2.424-1.136c0.505-0.606,12.354-14.633,26.839-15.334    c0.366-0.018,0.723-0.025,1.079-0.025c6.545,0,12.751,2.867,18.446,8.522c9.335,9.273,7.059,31.412-4.776,46.447    c-5.375,6.829-14.809,14.97-29.221,14.97c-8.61,0-17.86-3.005-27.494-8.933C1131.599,811.924,1131.052,811.767,1130.473,811.767z" fill="#58595B"/></g><g><ellipse cx="1051.399" cy="859.453" fill="#FFFFFF" rx="96" ry="28.852"/></g><g><path d="M1051.399,893.304c-50.19,0-101-11.628-101-33.852s50.81-33.852,101-33.852s101,11.628,101,33.852    S1101.589,893.304,1051.399,893.304z M1051.399,835.601c-55.55,0-91,14.127-91,23.852s35.45,23.852,91,23.852s91-14.127,91-23.852    S1106.948,835.601,1051.399,835.601z" fill="#58595B"/></g><g><ellipse cx="1051.399" cy="854.601" fill="#FFFFFF" rx="111" ry="17"/></g><g><path d="M1051.399,876.601c-29.895,0-58.038-1.789-79.246-5.037c-32.388-4.96-36.754-11.358-36.754-16.963    s4.366-12.003,36.754-16.963c21.208-3.248,49.352-5.037,79.246-5.037s58.037,1.789,79.245,5.037    c32.388,4.96,36.755,11.358,36.755,16.963s-4.367,12.003-36.755,16.963C1109.436,874.812,1081.293,876.601,1051.399,876.601z     M946.557,854.601c2.793,1.617,10.642,4.848,31.406,7.702c20.164,2.771,46.243,4.298,73.436,4.298    c27.191,0,53.271-1.526,73.435-4.298c20.765-2.854,28.614-6.085,31.407-7.702c-2.793-1.617-10.643-4.848-31.407-7.702    c-20.163-2.771-46.243-4.298-73.435-4.298c-27.192,0-53.271,1.526-73.436,4.298C957.198,849.754,949.35,852.984,946.557,854.601z" fill="#58595B"/></g><g><ellipse cx="1051.399" cy="854.101" fill="#D8D8D8" rx="77.5" ry="6.5"/></g><g><g><path d="M945.406,720.849c-0.145,2.976-0.227,5.975-0.227,8.999c0,45.581,16.699,85.993,42.436,111.121     c20.197,3.804,42.107,14.259,64.646,14.259c20.199,0,39.438-10.05,57.807-13.133c26.398-25.035,43.6-65.98,43.6-112.247     c0-3.024-0.08-6.023-0.225-8.999H945.406z" fill="#FFFFFF"/></g><g><path d="M1153.444,720.849h-4.023c-9.338,61.809-37.295,110.379-99.994,108.379     c-67.283-2.146-90.658-46.57-100-108.379h-4.02c-0.145,2.976-0.227,5.975-0.227,8.999c0,45.581,16.699,85.993,42.436,111.121     c20.197,3.804,42.107,14.259,64.646,14.259c20.199,0,39.438-10.05,57.807-13.133c26.398-25.035,43.6-65.98,43.6-112.247     C1153.668,726.824,1153.588,723.825,1153.444,720.849z" fill="#D8D8D8"/></g><g><path d="M1056.82,860.975c-1.559,0-3.149-0.027-4.729-0.082c-43.882-1.509-63.982-12.908-67.931-16.385     l-0.037,0.038c-27.926-27.266-43.942-69.071-43.942-114.698c0-2.957,0.078-6.066,0.232-9.241c0.13-2.664,2.327-4.758,4.994-4.758     h208.037c2.667,0,4.864,2.094,4.994,4.758c0.153,3.148,0.23,6.258,0.23,9.241c0,45.74-16.882,89.059-45.159,115.875     c-0.604,0.573-1.333,0.979-2.114,1.193c-0.202,0.116-0.444,0.26-0.727,0.424C1104.89,850.713,1087.303,860.975,1056.82,860.975z      M990.936,837.223c1.476,1.057,18.028,12.182,61.498,13.676c1.466,0.051,2.941,0.076,4.386,0.076     c27.779,0,43.607-9.236,48.809-12.271c0.69-0.402,1.263-0.736,1.792-0.996c25.848-25.023,41.248-65.244,41.248-107.859     c0-1.309-0.016-2.645-0.047-3.999H950.228c-0.031,1.36-0.048,2.696-0.048,3.999C950.18,772.071,965.412,812.189,990.936,837.223z     " fill="#58595B"/></g><g><ellipse cx="1049.424" cy="720.848" fill="#FFFFFF" rx="103.678" ry="13.499"/></g><g><path d="M1049.426,739.347c-27.904,0-54.17-1.419-73.959-3.995c-28.816-3.752-34.721-8.512-34.721-14.504     s5.904-10.751,34.721-14.503c19.79-2.577,46.056-3.996,73.959-3.996c27.901,0,54.166,1.419,73.955,3.996     c28.816,3.752,34.721,8.511,34.721,14.503s-5.904,10.752-34.721,14.504C1103.593,737.928,1077.328,739.347,1049.426,739.347z      M953.889,720.848c3.962,1.384,11.912,3.363,27.534,5.158c18.753,2.154,42.903,3.341,68.003,3.341     c25.098,0,49.247-1.187,67.999-3.341c15.622-1.795,23.572-3.774,27.534-5.158c-3.962-1.384-11.912-3.362-27.534-5.157     c-18.752-2.155-42.901-3.342-67.999-3.342c-25.099,0-49.249,1.187-68.003,3.342C965.801,717.486,957.851,719.465,953.889,720.848     z" fill="#58595B"/></g><g><g><path d="M1006.246,678.228c-1.062,0-2.131-0.336-3.039-1.032c-2.191-1.681-2.605-4.819-0.925-7.011      c9.99-13.027,6.267-18.763,0.631-27.444c-2.379-3.664-4.838-7.453-6.259-12.031c-6.375-20.533,6.688-33.77,14.486-37.9      c2.437-1.291,5.466-0.361,6.759,2.079c1.288,2.433,0.367,5.447-2.056,6.746c-1.566,0.854-15.02,8.78-9.639,26.111      c1.011,3.257,2.995,6.313,5.096,9.55c5.884,9.063,13.206,20.343-1.083,38.976      C1009.234,677.554,1007.748,678.228,1006.246,678.228z" fill="#58595B"/></g><g><path d="M1044.811,678.228c-1.062,0-2.131-0.336-3.039-1.032c-2.191-1.681-2.605-4.819-0.925-7.011      c9.991-13.027,6.268-18.764,0.631-27.445c-2.378-3.664-4.838-7.452-6.259-12.029c-6.375-20.534,6.688-33.771,14.486-37.901      c2.437-1.291,5.466-0.361,6.759,2.079c1.288,2.433,0.367,5.447-2.056,6.746c-1.566,0.854-15.02,8.78-9.639,26.111      c1.011,3.256,2.995,6.313,5.096,9.549c5.884,9.063,13.206,20.343-1.083,38.977      C1047.798,677.554,1046.313,678.228,1044.811,678.228z" fill="#58595B"/></g><g><path d="M1083.375,678.228c-1.062,0-2.132-0.337-3.039-1.032c-2.191-1.681-2.605-4.819-0.925-7.011      c9.992-13.027,6.269-18.764,0.632-27.445c-2.379-3.664-4.839-7.452-6.26-12.029c-6.375-20.534,6.688-33.771,14.486-37.901      c2.436-1.291,5.466-0.361,6.759,2.079c1.288,2.433,0.367,5.447-2.056,6.746c-1.566,0.854-15.02,8.78-9.639,26.111      c1.011,3.256,2.995,6.313,5.096,9.549c5.885,9.063,13.208,20.343-1.083,38.977      C1086.363,677.554,1084.877,678.228,1083.375,678.228z" fill="#58595B"/></g></g></g></g></svg>